<?xml version="1.0" encoding="UTF-8" standalone="no"?>
<svg
   xmlns:dc="http://purl.org/dc/elements/1.1/"
   xmlns:cc="http://creativecommons.org/ns#"
   xmlns:rdf="http://www.w3.org/1999/02/22-rdf-syntax-ns#"
   xmlns:svg="http://www.w3.org/2000/svg"
   xmlns="http://www.w3.org/2000/svg"
   xmlns:sodipodi="http://sodipodi.sourceforge.net/DTD/sodipodi-0.dtd"
   xmlns:inkscape="http://www.inkscape.org/namespaces/inkscape"
   sodipodi:docname="nabla_v2.svg"
   inkscape:version="1.0 (4035a4fb49, 2020-05-01)"
   inkscape:export-ydpi="200"
   inkscape:export-xdpi="200"
   inkscape:export-filename="/tmp/nabla_logo.png"
   id="svg8"
   version="1.1"
   viewBox="0 0 210 297"
   height="297mm"
   width="210mm">
  <defs
     id="defs2" />
  <sodipodi:namedview
     inkscape:window-maximized="1"
     inkscape:window-y="47"
     inkscape:window-x="2570"
     inkscape:window-height="1382"
     inkscape:window-width="2538"
     inkscape:guide-bbox="true"
     showguides="true"
     showgrid="false"
     inkscape:document-rotation="0"
     inkscape:current-layer="layer1"
     inkscape:document-units="mm"
     inkscape:cy="-79.632409"
     inkscape:cx="471.28542"
     inkscape:zoom="1"
     inkscape:pageshadow="2"
     inkscape:pageopacity="0.0"
     borderopacity="1.0"
     bordercolor="#666666"
     pagecolor="#ffffff"
     id="base">
    <sodipodi:guide
       id="guide948"
       orientation="0,-1"
       position="65.145452,219.06466" />
    <sodipodi:guide
       id="guide950"
       orientation="1,0"
       position="63.525732,224.44319" />
    <sodipodi:guide
       id="guide952"
       orientation="1,0"
       position="63.197773,224.44319" />
    <sodipodi:guide
       id="guide954"
       orientation="0,-1"
       position="40.568612,267.14344" />
    <sodipodi:guide
       id="guide956"
       orientation="0,-1"
       position="40.568612,263.4703" />
    <sodipodi:guide
       id="guide958"
       orientation="1,0"
       position="40.568612,263.4703" />
    <sodipodi:guide
       id="guide960"
       orientation="1,0"
       position="86.220486,263.4703" />
    <sodipodi:guide
       id="guide964"
       orientation="1,0"
       position="87.810994,267.14344" />
    <sodipodi:guide
       id="guide968"
       orientation="1,0"
       position="38.896651,267.14345" />
    <sodipodi:guide
       id="guide986"
       orientation="0,-1"
       position="113.00155,248.73113" />
    <sodipodi:guide
       id="guide988"
       orientation="1,0"
       position="99.905347,226.37403" />
    <sodipodi:guide
       id="guide990"
       orientation="1,0"
       position="91.910236,257.80426" />
    <sodipodi:guide
       id="guide992"
       orientation="1,0"
       position="123.23827,219.06467" />
    <sodipodi:guide
       id="guide994"
       orientation="1,0"
       position="131.80613,219.06467" />
    <sodipodi:guide
       id="guide996"
       orientation="1,0"
       position="157.80929,248.73114" />
    <sodipodi:guide
       id="guide998"
       orientation="1,0"
       position="164.86881,260.9581" />
    <sodipodi:guide
       id="guide1000"
       orientation="1,0"
       position="174.12006,218.85441" />
    <sodipodi:guide
       id="guide1002"
       orientation="1,0"
       position="202.1891,219.06467" />
    <sodipodi:guide
       id="guide1004"
       orientation="1,0"
       position="178.76322,248.73114" />
    <sodipodi:guide
       id="guide1036"
       orientation="0,-1"
       position="86.128207,257.80426" />
    <sodipodi:guide
       id="guide1038"
       orientation="0,-1"
       position="131.8059,260.95828" />
  </sodipodi:namedview>
  <metadata
     id="metadata5">
    <rdf:RDF>
      <cc:Work
         rdf:about="">
        <dc:format>image/svg+xml</dc:format>
        <dc:type
           rdf:resource="http://purl.org/dc/dcmitype/StillImage" />
        <dc:title></dc:title>
      </cc:Work>
    </rdf:RDF>
  </metadata>
  <g
     id="layer1"
     inkscape:groupmode="layer"
     inkscape:label="Layer 1">
    <g
       transform="matrix(1.2911767,0,0,1.2911767,-38.269718,-14.704029)"
       style="font-style:normal;font-weight:normal;font-size:50.8px;line-height:1.25;font-family:sans-serif;letter-spacing:0px;word-spacing:0px;fill:#726f92;fill-opacity:1;stroke:none;stroke-width:0.264583"
       id="text835"
       aria-label="∇">
      <path
         transform="matrix(0.20491644,0,0,0.20491644,29.639412,11.388084)"
         d="M 147.01172 112.84375 L 153.33008 126.72656 L 226.71094 294.55859 L 237.89648 294.55859 L 237.89648 271.86719 L 215.05859 215.72461 L 179.60742 132.42773 L 299.34766 132.42773 L 281.23047 174.69922 L 294.67773 198.5625 L 325.87305 126.72656 L 331.88477 112.84375 L 147.01172 112.84375 z M 279.04883 179.79102 L 271.84961 196.58984 L 277.20508 207.30469 L 284.91992 221.02734 L 292.47852 203.625 L 279.04883 179.79102 z M 269.57617 201.89453 L 263.89648 215.14844 C 264.05625 218.64539 264.1543 222.14053 264.1543 225.61914 L 264.1543 268.8457 L 282.71875 226.09766 L 273.31445 209.37305 L 269.57617 201.89453 z M 259.74414 225.42578 L 242.29492 268.77148 L 242.29492 292.35938 L 253.94336 292.35938 L 259.74609 278.99805 L 259.74609 225.61914 C 259.74609 225.55518 259.7442 225.48978 259.74414 225.42578 z "
         style="font-style:normal;font-variant:normal;font-weight:normal;font-stretch:normal;font-size:50.8px;font-family:'Noto Sans CJK JP';-inkscape-font-specification:'Noto Sans CJK JP';fill:#726f92;fill-opacity:1;stroke-width:1.29118"
         id="path837" />
    </g>
    <g
       style="opacity:1;stroke:none;stroke-width:1;stroke-miterlimit:4;stroke-dasharray:none"
       id="g1011">
      <path
         id="path1013"
         d="m 63.525732,77.935341 h 5.782029 V 59.695667 c 0,-4.205112 -0.473075,-8.673043 -0.788459,-12.6679 h 0.26282 l 4.04742,8.094841 12.825592,22.812733 h 6.255104 V 39.195746 h -5.782029 v 18.081982 c 0,4.205112 0.473075,8.883299 0.788458,12.878155 H 86.653848 L 82.606427,61.955915 69.780836,39.195746 h -6.255104 z"
         style="color:#000000;font-style:normal;font-variant:normal;font-weight:500;font-stretch:normal;font-size:52.5639px;line-height:1.25;font-family:'Noto Sans CJK JP';-inkscape-font-specification:'Noto Sans CJK JP Medium';font-variant-ligatures:normal;font-variant-position:normal;font-variant-caps:normal;font-variant-numeric:normal;font-variant-alternates:normal;font-variant-east-asian:normal;font-feature-settings:normal;font-variation-settings:normal;text-indent:0;text-align:start;text-decoration:none;text-decoration-line:none;text-decoration-style:solid;text-decoration-color:#000000;letter-spacing:0px;word-spacing:0px;text-transform:none;writing-mode:lr-tb;direction:ltr;text-orientation:mixed;dominant-baseline:auto;baseline-shift:baseline;text-anchor:start;white-space:normal;shape-padding:0;shape-margin:0;inline-size:0;clip-rule:nonzero;display:inline;overflow:visible;visibility:visible;isolation:auto;mix-blend-mode:normal;color-interpolation:sRGB;color-interpolation-filters:linearRGB;solid-color:#000000;solid-opacity:1;vector-effect:none;fill:#000000;fill-opacity:1;fill-rule:nonzero;stroke:none;stroke-width:1;stroke-linecap:butt;stroke-linejoin:miter;stroke-miterlimit:4;stroke-dasharray:none;stroke-dashoffset:0;stroke-opacity:1;color-rendering:auto;image-rendering:auto;shape-rendering:auto;text-rendering:auto;enable-background:accumulate;stop-color:#000000;stop-opacity:1" />
    </g>
    <path
       d="m 107.88832,48.289607 c -4.62562,0 -8.672911,1.891964 -11.669053,3.784264 l 2.260327,4.100009 c 2.470496,-1.576916 5.308916,-2.943489 8.357626,-2.943489 4.25767,0 5.46648,2.943534 5.51905,6.307624 -12.03714,1.314098 -17.293521,4.520319 -17.293521,10.722859 0,3.725566 1.88173,6.467067 4.842598,7.674467 h 7.455363 c 1.97084,-0.708785 3.78478,-1.908406 5.4162,-3.311425 h 0.21033 l 0.47284,3.311425 h 4.9413 V 60.53692 c 0,-7.674329 -3.3118,-12.247313 -10.51306,-12.247313 z m 4.46795,15.085382 v 7.09621 c -2.36538,2.155118 -4.41553,3.364134 -6.9386,3.364134 -2.57563,0 -4.52014,-1.156136 -4.52014,-3.994589 0,-3.25896 2.89082,-5.46704 11.45874,-6.465755 z"
       style="font-style:normal;font-variant:normal;font-weight:500;font-stretch:normal;font-size:52.5639px;line-height:1.25;font-family:'Noto Sans CJK JP';-inkscape-font-specification:'Noto Sans CJK JP Medium';letter-spacing:0px;word-spacing:0px;fill:#000000;fill-opacity:1;stroke:none;stroke-width:0.264583"
       id="path972" />
    <path
       d="m 123.23827,36.041774 v 41.893567 h 4.73098 l 0.57826,-2.996198 h 0.15761 c 1.44191,1.349873 3.02733,2.374538 4.61987,2.996198 h 7.19336 c 4.84513,-1.780456 8.6341,-6.99501 8.6341,-14.928287 0,-8.883298 -4.15235,-14.717447 -11.45873,-14.717447 -3.0487,0 -6.15015,1.629145 -8.62066,3.784264 l 0.21032,-4.940785 V 36.041774 Z m 12.87828,17.293519 c 4.83587,0 6.78099,3.732331 6.78099,9.777182 0,6.780741 -3.15414,10.512536 -7.35925,10.512536 -1.78716,0 -4.04723,-0.6834 -6.25491,-2.628265 V 56.857042 c 2.36537,-2.365377 4.57292,-3.521749 6.83317,-3.521749 z"
       style="font-style:normal;font-variant:normal;font-weight:500;font-stretch:normal;font-size:52.5639px;line-height:1.25;font-family:'Noto Sans CJK JP';-inkscape-font-specification:'Noto Sans CJK JP Medium';letter-spacing:0px;word-spacing:0px;fill:#000000;fill-opacity:1;stroke:none;stroke-width:0.264583"
       id="path974" />
    <path
       d="m 151.7647,36.041721 v 35.113103 c 0,3.320457 0.82224,5.686131 2.85874,6.780464 h 6.3562 l -0.75241,-4.362524 c -0.52564,0.105129 -0.73557,0.104904 -0.99839,0.104904 -0.7359,0 -1.41955,-0.578136 -1.41955,-2.207617 v -35.42833 z"
       style="font-style:normal;font-variant:normal;font-weight:500;font-stretch:normal;font-size:52.5639px;line-height:1.25;font-family:'Noto Sans CJK JP';-inkscape-font-specification:'Noto Sans CJK JP Medium';letter-spacing:0px;word-spacing:0px;fill:#000000;fill-opacity:1;stroke:none;stroke-width:0.264583"
       id="path976" />
    <path
       d="m 176.71645,48.289607 c -4.62563,0 -8.67292,1.891964 -11.66906,3.784264 l 2.26033,4.100009 c 2.4705,-1.576916 5.30892,-2.943489 8.35763,-2.943489 4.25767,0 5.46647,2.943534 5.51904,6.307624 -12.03714,1.314098 -17.29352,4.520319 -17.29352,10.722859 0,3.725566 1.88173,6.467067 4.8426,7.674467 h 7.45536 c 1.97084,-0.708785 3.78478,-1.908406 5.41621,-3.311425 h 0.21032 l 0.47284,3.311425 h 4.9413 V 60.53692 c 0,-7.674329 -3.3118,-12.247313 -10.51305,-12.247313 z m 4.46794,15.085382 v 7.09621 c -2.36538,2.155118 -4.41501,3.364134 -6.93808,3.364134 -2.57563,0 -4.52065,-1.156136 -4.52065,-3.994589 0,-3.25896 2.89081,-5.46704 11.45873,-6.465755 z"
       style="font-style:normal;font-variant:normal;font-weight:500;font-stretch:normal;font-size:52.5639px;line-height:1.25;font-family:'Noto Sans CJK JP';-inkscape-font-specification:'Noto Sans CJK JP Medium';letter-spacing:0px;word-spacing:0px;fill:#000000;fill-opacity:1;stroke:none;stroke-width:0.264583"
       id="path978" />
  </g>
</svg>
